<svg width="31" height="31" viewBox="0 0 31 31" fill="none" xmlns="http://www.w3.org/2000/svg">
<path fill-rule="evenodd" clip-rule="evenodd" d="M26.2866 28.9676V28.964L26.3148 28.8876L31 2.00085V1.91549C31 1.24507 30.7813 0.660067 30.3095 0.309724C29.8955 0.00209832 29.419 -0.0192409 29.0846 0.00921071C28.7734 0.0412446 28.4664 0.11282 28.1691 0.222597C28.0424 0.269116 27.9173 0.321299 27.7942 0.379107L27.7739 0.387966L1.6525 12.0514L1.64469 12.0549C1.56527 12.0858 1.48754 12.122 1.41191 12.1634C1.22613 12.2583 1.0479 12.3714 0.879169 12.5012C0.543279 12.7644 -0.0956966 13.3832 0.0120982 14.3648C0.101151 15.1792 0.593274 15.6949 0.926038 15.9634C1.12245 16.1201 1.33363 16.2513 1.55564 16.3547L1.60563 16.3796L1.62126 16.3849L1.63219 16.3902L6.20345 18.1417C6.18782 18.4672 6.21591 18.7997 6.29251 19.1287L8.58126 29.0138C8.70626 29.5526 8.97645 30.0333 9.35382 30.3885C9.73119 30.7436 10.1968 30.9552 10.6853 30.9936C11.1738 31.0321 11.6605 30.8954 12.0773 30.6028C12.494 30.3103 12.8197 29.8765 13.0088 29.3623L16.5832 25.0128L22.7215 30.3688L22.809 30.4115C23.3667 30.6889 23.8869 30.776 24.3634 30.7031C24.8399 30.6284 25.218 30.4008 25.5023 30.143C25.8312 29.8395 26.0933 29.4529 26.2679 29.0138L26.2804 28.9836L26.2851 28.9729L26.2866 28.9676ZM8.55778 18.4494C8.53245 18.3397 8.53845 18.2237 8.57503 18.1181C8.61154 18.0126 8.67667 17.9231 8.76089 17.8626L24.2603 6.65979C24.2603 6.65979 25.1727 6.02849 25.1399 6.65979C25.1399 6.65979 25.3024 6.77004 24.8134 7.28747C24.351 7.78007 13.7664 19.4114 12.6947 20.5886C12.6351 20.6545 12.5934 20.7384 12.5745 20.8304L10.8465 28.3345L8.55778 18.4494Z" fill="#343230"/>
</svg>
