<svg width="23" height="23" viewBox="0 0 23 23" fill="none" xmlns="http://www.w3.org/2000/svg">
<path d="M23 2.7059C22.1534 3.1794 21.2409 3.49061 20.2954 3.63943C21.2629 2.92237 22.0105 1.78589 22.3623 0.41942C21.4498 1.09587 20.4383 1.56942 19.3719 1.84002C18.5033 0.67645 17.283 0 15.8977 0C13.3141 0 11.2032 2.59764 11.2032 5.80413C11.2032 6.26411 11.2471 6.71057 11.3241 7.12999C7.41014 6.88648 3.92497 4.57296 1.60516 1.06883C1.19838 1.92119 0.967497 2.92237 0.967497 3.97763C0.967497 5.99351 1.79206 7.7794 3.06741 8.7941C2.28683 8.7941 1.56119 8.5235 0.923517 8.11765V8.15821C0.923517 10.9723 2.55066 13.3265 4.70555 13.8541C4.01371 14.0871 3.28737 14.1195 2.58365 13.9488C2.88228 15.1022 3.46706 16.1114 4.25588 16.8346C5.04469 17.5577 5.99786 17.9585 6.98138 17.9806C5.31421 19.6047 3.24768 20.4826 1.12141 20.47C0.747609 20.47 0.373804 20.4429 0 20.3888C2.08891 22.0394 4.57361 23 7.23421 23C15.8977 23 20.6582 14.1518 20.6582 6.48058C20.6582 6.2235 20.6582 5.97999 20.6472 5.72296C21.5707 4.91116 22.3623 3.88294 23 2.7059Z" fill="#343230"/>
</svg>
